<svg width="134" height="26" viewBox="0 0 134 26" fill="none" xmlns="http://www.w3.org/2000/svg">
<path d="M5.17822 5.39893V15.2085H10.083C10.7552 15.2085 11.3875 15.0832 11.98 14.8325C12.5724 14.5705 13.0908 14.2173 13.5352 13.7729C13.9795 13.3286 14.327 12.8102 14.5776 12.2178C14.8397 11.6139 14.9707 10.9759 14.9707 10.3037C14.9707 9.63151 14.8397 8.99919 14.5776 8.40674C14.327 7.8029 13.9795 7.27881 13.5352 6.83447C13.0908 6.39014 12.5724 6.04264 11.98 5.79199C11.3875 5.52995 10.7552 5.39893 10.083 5.39893H5.17822ZM5.17822 25.001H0.273438V0.494141H10.083C10.9831 0.494141 11.849 0.61377 12.6807 0.853027C13.5124 1.08089 14.2871 1.4113 15.0049 1.84424C15.734 2.26579 16.3949 2.77848 16.9873 3.38232C17.5911 3.97477 18.1038 4.63558 18.5254 5.36475C18.9583 6.09391 19.2887 6.87435 19.5166 7.70605C19.7559 8.53776 19.8755 9.40365 19.8755 10.3037C19.8755 11.6481 19.6191 12.9185 19.1064 14.1147C18.5938 15.2996 17.8931 16.3364 17.0044 17.2251C16.1157 18.1138 15.0732 18.8145 13.877 19.3271C12.6921 19.8398 11.4274 20.0962 10.083 20.0962H5.17822V25.001Z" fill="white"/>
<path d="M27.6685 5.39893V15.2085H32.5732C33.2454 15.2085 33.8778 15.0832 34.4702 14.8325C35.0627 14.5705 35.5811 14.2173 36.0254 13.7729C36.4697 13.3286 36.8172 12.8102 37.0679 12.2178C37.3299 11.6139 37.4609 10.9759 37.4609 10.3037C37.4609 9.63151 37.3299 8.99919 37.0679 8.40674C36.8172 7.8029 36.4697 7.27881 36.0254 6.83447C35.5811 6.39014 35.0627 6.04264 34.4702 5.79199C33.8778 5.52995 33.2454 5.39893 32.5732 5.39893H27.6685ZM27.6685 25.001H22.7637V0.494141H32.5732C33.4733 0.494141 34.3392 0.61377 35.1709 0.853027C36.0026 1.08089 36.7773 1.4113 37.4951 1.84424C38.2243 2.26579 38.8851 2.77848 39.4775 3.38232C40.0814 3.97477 40.5941 4.63558 41.0156 5.36475C41.4486 6.09391 41.779 6.87435 42.0068 7.70605C42.2461 8.53776 42.3657 9.40365 42.3657 10.3037C42.3657 11.1468 42.2575 11.9671 42.041 12.7646C41.8359 13.5622 41.534 14.3198 41.1353 15.0376C40.7479 15.7554 40.2694 16.4162 39.6997 17.02C39.13 17.6239 38.492 18.1479 37.7856 18.5923L40.5029 25.001H35.2905L33.1543 20.062L27.6685 20.0962V25.001Z" fill="white"/>
<path d="M60.0195 15.2085V10.3037C60.0195 9.63151 59.8885 8.99919 59.6265 8.40674C59.3758 7.8029 59.0283 7.27881 58.584 6.83447C58.1396 6.39014 57.6156 6.04264 57.0117 5.79199C56.4193 5.52995 55.7869 5.39893 55.1147 5.39893C54.4425 5.39893 53.8045 5.52995 53.2007 5.79199C52.6082 6.04264 52.0898 6.39014 51.6455 6.83447C51.2012 7.27881 50.848 7.8029 50.5859 8.40674C50.3353 8.99919 50.21 9.63151 50.21 10.3037V15.2085H60.0195ZM64.9243 25.001H60.0195V20.0962H50.21V25.001H45.3223V10.3037C45.3223 8.94792 45.5786 7.67757 46.0913 6.49268C46.604 5.29639 47.299 4.25391 48.1763 3.36523C49.0649 2.47656 50.1017 1.77588 51.2866 1.26318C52.4829 0.750488 53.759 0.494141 55.1147 0.494141C56.4705 0.494141 57.7409 0.750488 58.9258 1.26318C60.1221 1.77588 61.1646 2.47656 62.0532 3.36523C62.9419 4.25391 63.6426 5.29639 64.1553 6.49268C64.668 7.67757 64.9243 8.94792 64.9243 10.3037V25.001Z" fill="white"/>
<path d="M88.7476 22.4888C87.6082 23.4686 86.3322 24.2205 84.9194 24.7446C83.5067 25.2687 82.0426 25.5308 80.5273 25.5308C79.3652 25.5308 78.243 25.377 77.1606 25.0693C76.0897 24.7731 75.0814 24.3516 74.1357 23.8047C73.2015 23.2464 72.347 22.5799 71.5723 21.8052C70.7975 21.0304 70.131 20.1759 69.5728 19.2417C69.0259 18.2961 68.5986 17.2878 68.291 16.2168C67.9948 15.1344 67.8467 14.0122 67.8467 12.8501C67.8467 11.688 67.9948 10.5658 68.291 9.4834C68.5986 8.40104 69.0259 7.39274 69.5728 6.4585C70.131 5.51286 70.7975 4.65267 71.5723 3.87793C72.347 3.10319 73.2015 2.44238 74.1357 1.89551C75.0814 1.33724 76.0897 0.909993 77.1606 0.61377C78.243 0.306152 79.3652 0.152344 80.5273 0.152344C82.0426 0.152344 83.5067 0.414388 84.9194 0.938477C86.3322 1.45117 87.6082 2.20312 88.7476 3.19434L86.1499 7.4668C85.4321 6.69206 84.5833 6.09961 83.6035 5.68945C82.6237 5.2679 81.5983 5.05713 80.5273 5.05713C79.445 5.05713 78.431 5.26221 77.4854 5.67236C76.5397 6.08252 75.7137 6.64079 75.0073 7.34717C74.3009 8.04215 73.7427 8.86816 73.3325 9.8252C72.9224 10.7708 72.7173 11.7791 72.7173 12.8501C72.7173 13.9211 72.9224 14.9294 73.3325 15.875C73.7427 16.8092 74.3009 17.6296 75.0073 18.3359C75.7137 19.0423 76.5397 19.6006 77.4854 20.0107C78.431 20.4209 79.445 20.626 80.5273 20.626C81.5983 20.626 82.6237 20.4209 83.6035 20.0107C84.5833 19.5892 85.4321 18.991 86.1499 18.2163L88.7476 22.4888Z" fill="white"/>
<path d="M96.5063 25.001H91.6016V0.494141H96.5063V10.3037H106.299V0.494141H111.204V25.001H106.299V15.2085H96.5063V25.001Z" fill="white"/>
<path d="M126.055 25.001H121.167V5.39893H113.801V0.494141H133.403V5.39893H126.055V25.001Z" fill="white"/>
</svg>
