<svg width="600" height="600" viewBox="0 0 600 600" fill="none" xmlns="http://www.w3.org/2000/svg">
<rect width="600" height="600" fill="#D9D9D9"/>
<path fill-rule="evenodd" clip-rule="evenodd" d="M346.46 80.0129C338.01 97.0229 318.695 133.002 309.57 148.731L305.036 156.545L291.013 137.121C278.181 119.348 246.729 79.0436 245.691 79.0436C244.407 79.0436 219.452 90.6992 210.747 95.3638C190.248 106.351 147.974 132.822 146.109 135.84C144.85 137.876 163.619 188.438 176.351 217.309C182.944 232.259 184.881 230.372 160.795 232.46C133.585 234.818 84.2806 244.283 80.7352 247.828C79.9668 248.597 64.7325 331.678 63.0615 344.206C62.6999 346.916 63.5717 347.433 75.7565 351.725C99.8134 360.198 129.88 366.774 161.389 370.454C167.931 371.217 173.417 371.972 173.581 372.131C173.954 372.489 159.526 393.603 149.14 407.898C139.785 420.775 124.894 439.428 115.188 450.43C111.286 454.853 108.31 458.671 108.575 458.915C108.842 459.16 114.678 462.819 121.546 467.049C150.588 484.93 182.13 500.361 212.395 511.491L226.648 516.734L235.052 511.811C254.494 500.42 278.64 479.012 295.483 458.231L303.852 447.906L315.521 464.493C330.268 485.449 341.788 500.481 357.447 519.195C375.072 540.261 372.803 538.834 385.907 537.097C418.516 532.777 451.853 522.31 483.276 506.529C489.071 503.619 493.812 501.031 493.812 500.777C493.812 500.524 485.989 485.142 476.428 466.596C452.048 419.3 434.123 383.34 434.662 382.803C434.913 382.552 444.177 381.803 455.247 381.14C476.775 379.849 498.935 377.271 511.863 374.552C525.48 371.687 535.989 368.955 537.049 368.005C537.607 367.504 534.161 337.11 529.391 300.463L520.718 233.831L507.562 231.368C488.622 227.82 467.308 225.553 443.995 224.606C432.799 224.152 423.64 223.588 423.64 223.354C423.64 223.121 425.8 216.665 428.44 209.009C437.213 183.566 449.456 138.776 456.397 106.733C456.882 104.491 455.581 103.272 447.737 98.6262C434.332 90.6873 406.791 77.3024 395.096 73.0433C385.858 69.6787 367.731 64.7607 358.762 63.1849C355.145 62.5497 355.118 62.5854 346.46 80.0129Z" fill="#CC00AA"/>
</svg>
