<svg width="600" height="600" viewBox="0 0 600 600" fill="none" xmlns="http://www.w3.org/2000/svg">
<rect width="600" height="600" fill="#D9D9D9"/>
<path fill-rule="evenodd" clip-rule="evenodd" d="M339.214 114.297C332.112 128.592 315.88 158.828 308.212 172.046L304.402 178.613L292.617 162.289C281.833 147.354 255.402 113.483 254.53 113.483C253.451 113.483 232.479 123.278 225.164 127.198C207.936 136.431 172.41 158.677 170.843 161.213C169.785 162.924 185.558 205.416 196.258 229.678C201.798 242.241 203.426 240.656 183.185 242.41C160.318 244.392 118.884 252.346 115.904 255.326C115.259 255.971 102.456 325.792 101.052 336.319C100.748 338.597 101.48 339.031 111.72 342.638C131.937 349.759 157.205 355.285 183.684 358.377C189.182 359.019 193.792 359.654 193.93 359.787C194.243 360.087 182.118 377.832 173.391 389.845C165.528 400.666 153.015 416.342 144.858 425.588C141.578 429.305 139.078 432.513 139.301 432.718C139.524 432.924 144.429 436 150.201 439.554C174.607 454.581 201.115 467.549 226.548 476.902L238.526 481.308L245.588 477.171C261.927 467.599 282.219 449.608 296.374 432.143L303.407 423.467L313.214 437.406C325.606 455.017 335.288 467.65 348.447 483.377C363.259 501.08 361.352 499.881 372.364 498.421C399.768 494.79 427.783 485.995 454.191 472.732C459.061 470.286 463.045 468.112 463.045 467.899C463.045 467.686 456.471 454.759 448.436 439.173C427.947 399.427 412.884 369.207 413.337 368.755C413.548 368.544 421.333 367.916 430.636 367.358C448.728 366.273 467.351 364.106 478.215 361.822C489.658 359.414 498.49 357.118 499.381 356.319C499.849 355.899 496.954 330.356 492.945 299.559L485.656 243.563L474.6 241.493C458.684 238.511 440.772 236.606 421.18 235.811C411.771 235.429 404.074 234.955 404.074 234.758C404.074 234.562 405.889 229.137 408.108 222.703C415.481 201.321 425.769 163.681 431.602 136.752C432.01 134.868 430.917 133.844 424.325 129.939C413.06 123.268 389.914 112.019 380.086 108.44C372.323 105.613 357.09 101.48 349.552 100.155C346.512 99.6216 346.49 99.6516 339.214 114.297Z" fill="#CC00AA"/>
</svg>
