<svg width="600" height="600" viewBox="0 0 600 600" fill="none" xmlns="http://www.w3.org/2000/svg">
<rect width="600" height="600" fill="#D9D9D9"/>
<path fill-rule="evenodd" clip-rule="evenodd" d="M350.33 60.4456C341.168 78.888 320.227 117.897 310.334 134.95L305.418 143.422L290.214 122.362C276.301 103.093 242.2 59.3947 241.076 59.3947C239.683 59.3947 212.627 72.0317 203.189 77.0892C180.963 89.0016 135.129 117.702 133.107 120.973C131.743 123.181 152.093 178.002 165.897 209.303C173.044 225.512 175.145 223.467 149.03 225.73C119.529 228.287 66.0726 238.549 62.2286 242.393C61.3956 243.226 44.8784 333.304 43.0666 346.886C42.6746 349.825 43.6198 350.385 56.8308 355.039C82.9135 364.225 115.512 371.355 149.675 375.344C156.767 376.172 162.716 376.991 162.894 377.163C163.297 377.551 147.654 400.443 136.394 415.942C126.251 429.903 110.107 450.128 99.5829 462.056C95.352 466.851 92.1257 470.991 92.4133 471.255C92.7021 471.521 99.0297 475.488 106.477 480.074C137.964 499.461 172.162 516.191 204.975 528.259L220.428 533.943L229.54 528.605C250.62 516.256 276.799 493.045 295.061 470.513L304.134 459.319L316.786 477.303C332.775 500.024 345.265 516.322 362.243 536.612C381.352 559.452 378.891 557.904 393.099 556.021C428.455 551.337 464.598 539.989 498.668 522.879C504.95 519.723 510.09 516.917 510.09 516.643C510.09 516.368 501.609 499.691 491.243 479.582C464.81 428.304 445.375 389.316 445.96 388.733C446.232 388.461 456.276 387.65 468.278 386.931C491.62 385.531 515.646 382.736 529.662 379.788C544.426 376.682 555.82 373.72 556.969 372.689C557.574 372.146 553.838 339.193 548.666 299.46L539.263 227.217L524.998 224.546C504.464 220.7 481.355 218.242 456.078 217.215C443.94 216.723 434.01 216.112 434.01 215.858C434.01 215.605 436.352 208.605 439.214 200.305C448.726 172.719 462 124.157 469.525 89.4155C470.051 86.9848 468.641 85.6631 460.136 80.6263C445.602 72.0189 415.741 57.5068 403.062 52.8891C393.046 49.2411 373.393 43.909 363.669 42.2004C359.746 41.5118 359.718 41.5505 350.33 60.4456Z" fill="#CC00AA"/>
</svg>
