<svg width="100" height="100" viewBox="0 0 100 100" fill="none" xmlns="http://www.w3.org/2000/svg">
<rect width="100" height="100" fill="black"/>
<path fill-rule="evenodd" clip-rule="evenodd" d="M57.7433 13.3355C56.3349 16.1705 53.1158 22.167 51.595 24.7885L50.8394 26.0908L48.5021 22.8534C46.3635 19.8914 41.1214 13.1739 40.9486 13.1739C40.7345 13.1739 36.5754 15.1165 35.1245 15.894C31.708 17.7252 24.6623 22.137 24.3515 22.6399C24.1417 22.9793 27.2699 31.4064 29.3919 36.2181C30.4907 38.7098 30.8136 38.3954 26.7991 38.7433C22.2642 39.1364 14.0468 40.7138 13.4559 41.3047C13.3278 41.4328 10.7887 55.2797 10.5102 57.3676C10.45 57.8194 10.5953 57.9054 12.6261 58.6208C16.6356 60.033 21.6467 61.1289 26.8982 61.7423C27.9885 61.8695 28.9029 61.9954 28.9302 62.0218C28.9923 62.0814 26.5876 65.6005 24.8567 67.983C23.2975 70.1291 20.8157 73.2381 19.198 75.0716C18.5476 75.8088 18.0517 76.4451 18.0959 76.4858C18.1403 76.5266 19.113 77.1366 20.2577 77.8414C25.098 80.8217 30.3551 83.3935 35.3991 85.2485L37.7746 86.1222L39.1753 85.3018C42.4156 83.4034 46.44 79.8354 49.2472 76.3718L50.6419 74.651L52.5869 77.4155C55.0447 80.9082 56.9647 83.4135 59.5745 86.5326C62.512 90.0435 62.1338 89.8057 64.3178 89.5162C69.7527 88.7961 75.3088 87.0517 80.5461 84.4215C81.5118 83.9364 82.3019 83.5051 82.3019 83.4629C82.3019 83.4207 80.9982 80.857 79.4047 77.7659C75.3413 69.8833 72.3538 63.89 72.4436 63.8004C72.4855 63.7586 74.0294 63.6339 75.8745 63.5233C79.4626 63.3082 83.1559 62.8785 85.3106 62.4253C87.58 61.9478 89.3316 61.4925 89.5082 61.3341C89.6011 61.2507 89.0269 56.185 88.2318 50.0772L86.7863 38.9718L84.5936 38.5613C81.4371 37.97 77.8847 37.5922 73.9991 37.4344C72.1332 37.3587 70.6067 37.2647 70.6067 37.2257C70.6067 37.1868 70.9667 36.1109 71.4067 34.8349C72.8688 30.5943 74.9094 23.1294 76.0662 17.7888C76.1471 17.4151 75.9302 17.212 74.6229 16.4377C72.3887 15.1145 67.7984 12.8837 65.8493 12.1739C64.3097 11.6131 61.2886 10.7935 59.7938 10.5308C59.1908 10.425 59.1864 10.4309 57.7433 13.3355Z" fill="white"/>
</svg>
